<?xml version="1.0" standalone="no"?>
<!DOCTYPE svg PUBLIC "-//W3C//DTD SVG 20010904//EN"
 "http://www.w3.org/TR/2001/REC-SVG-20010904/DTD/svg10.dtd">
<svg version="1.0" xmlns="http://www.w3.org/2000/svg"
 width="2560.000000pt" height="1501.000000pt" viewBox="0 0 2560.000000 1501.000000"
 preserveAspectRatio="xMidYMid meet">

<g transform="translate(0.000000,1501.000000) scale(0.100000,-0.100000)"
fill="#000000" stroke="none">
<path d="M6021 14999 c-1790 -89 -3477 -941 -4612 -2329 -656 -803 -1105
-1748 -1314 -2768 -30 -146 -45 -244 -90 -564 l-5 -38 1893 0 1892 0 28 93
c197 651 653 1212 1261 1549 197 110 463 209 698 262 357 80 749 82 1117 5
391 -80 791 -270 1111 -525 109 -87 317 -295 404 -404 202 -253 372 -573 466
-877 l32 -103 1889 0 c1885 0 1889 0 1889 20 0 39 -41 316 -70 475 -108 585
-298 1151 -564 1683 -570 1139 -1454 2071 -2556 2697 -372 212 -719 365 -1140
505 -757 252 -1536 358 -2329 319z"/>
<path d="M13110 13146 l0 -1866 33 0 c69 0 277 -20 372 -36 657 -106 1221
-434 1652 -960 69 -83 206 -292 265 -404 74 -139 139 -292 185 -440 l38 -120
3696 0 3696 0 23 78 c62 212 198 501 327 694 473 707 1223 1133 2086 1184
l117 6 0 1865 0 1865 -172 -6 c-853 -33 -1597 -196 -2337 -513 -1134 -485
-2108 -1293 -2788 -2313 -329 -494 -573 -997 -761 -1570 -66 -201 -162 -560
-177 -664 -4 -25 -10 -46 -14 -46 -3 0 -18 58 -33 128 -38 176 -98 393 -170
612 -584 1779 -1941 3221 -3685 3914 -698 277 -1385 419 -2185 452 l-168 6 0
-1866z"/>
<path d="M15645 7908 c-111 -401 -361 -822 -671 -1132 -435 -436 -1046 -720
-1629 -760 -49 -4 -120 -9 -157 -12 l-68 -6 0 -1864 0 -1863 133 5 c359 14
643 42 943 94 1592 277 3027 1156 3992 2445 508 679 871 1438 1077 2250 29
116 59 240 66 277 7 37 14 67 15 65 1 -1 19 -76 39 -167 359 -1602 1332 -3010
2703 -3914 864 -569 1852 -919 2882 -1021 118 -11 512 -34 618 -35 9 0 12 379
12 1864 l0 1864 -97 6 c-282 19 -461 48 -669 112 -418 126 -764 330 -1078 634
-317 308 -529 646 -669 1068 l-51 152 -3687 0 -3686 0 -18 -62z"/>
<path d="M0 3980 l0 -3980 1865 0 1865 0 0 1420 c0 976 3 1420 10 1420 6 0 27
-8 48 -19 80 -40 405 -166 571 -221 586 -194 1151 -295 1778 -319 1371 -53
2740 352 3875 1146 1246 871 2145 2179 2513 3653 66 266 127 592 151 818 l7
62 -1885 0 -1884 0 -28 -92 c-87 -293 -249 -607 -445 -858 -92 -119 -297 -327
-416 -423 -152 -122 -323 -231 -500 -318 -196 -95 -313 -139 -509 -189 -790
-202 -1613 -32 -2269 467 -56 43 -168 143 -248 223 -310 309 -529 671 -659
1088 l-32 102 -1904 0 -1904 0 0 -3980z"/>
</g>
</svg>
